<svg version="1.1" id="prefix__Layer_1" xmlns="http://www.w3.org/2000/svg" width="495" height="657" overflow="visible" xml:space="preserve"><path fill="none" stroke="#000" stroke-width="2" d="M243 36v216"/><path fill="none" stroke="#000" stroke-width="1.99998" d="M351.002 144L243.003 251.997 135.004 144 243.004 36z"/><path fill="none" stroke="#000" stroke-width="2" d="M135 36h216v216H135z"/><circle fill="#FFF" stroke="#000" stroke-width="2" cx="243" cy="36" r="22.5"/><circle fill="#FFF" stroke="#000" stroke-width="2" cx="135" cy="36" r="22.5"/><circle fill="#FFF" stroke="#000" stroke-width="2" cx="135" cy="144" r="22.5"/><circle fill="#FFF" stroke="#000" stroke-width="2" cx="135" cy="252" r="22.5"/><circle fill="#FFF" stroke="#000" stroke-width="2" cx="243" cy="252" r="22.5"/><circle fill="#FFF" stroke="#000" stroke-width="2" cx="351" cy="252" r="22.5"/><circle fill="#FFF" stroke="#000" stroke-width="2" cx="351" cy="144" r="22.5"/><circle fill="#FFF" stroke="#000" stroke-width="2" cx="351" cy="36" r="22.5"/><text transform="translate(123 47)" fill="#5110D2" font-family="Liberation Serif" font-size="36">A</text><path fill="#FFF" d="M432 540a53.724 53.724 0 00-27.422 7.485l-34.063-34.062C375.265 505.384 378 496.014 378 486s-2.735-19.384-7.485-27.423l34.062-34.062A53.73 53.73 0 00432 432c29.823 0 54-24.177 54-54s-24.177-54-54-54-54 24.177-54 54a53.73 53.73 0 007.485 27.423l-34.062 34.062A53.727 53.727 0 00324 432c-25.162 0-46.304 17.21-52.299 40.5h-48.402C217.304 449.21 196.162 432 171 432a53.729 53.729 0 00-27.422 7.485l-34.063-34.062A53.73 53.73 0 00117 378c0-29.823-24.177-54-54-54S9 348.177 9 378s24.177 54 54 54a53.74 53.74 0 0027.423-7.485l34.062 34.062A53.737 53.737 0 00117 486a53.768 53.768 0 005.566 23.883l-35.683 35.684A53.766 53.766 0 0063 540c-29.823 0-54 24.177-54 54s24.177 54 54 54 54-24.177 54-54a53.732 53.732 0 00-9.619-30.749l32.87-32.87A53.74 53.74 0 00171 540c25.162 0 46.304-17.21 52.299-40.5h48.402C277.696 522.79 298.838 540 324 540a53.743 53.743 0 0027.424-7.485l34.062 34.062A53.728 53.728 0 00378 594c0 29.823 24.177 54 54 54s54-24.177 54-54-24.177-54-54-54z"/><path fill="none" stroke="#000" d="M432 540a53.724 53.724 0 00-27.422 7.485l-34.063-34.062C375.265 505.384 378 496.014 378 486s-2.735-19.384-7.485-27.423l34.062-34.062A53.73 53.73 0 00432 432c29.823 0 54-24.177 54-54s-24.177-54-54-54-54 24.177-54 54a53.73 53.73 0 007.485 27.423l-34.062 34.062A53.727 53.727 0 00324 432c-25.162 0-46.304 17.21-52.299 40.5h-48.402C217.304 449.21 196.162 432 171 432a53.729 53.729 0 00-27.422 7.485l-34.063-34.062A53.73 53.73 0 00117 378c0-29.823-24.177-54-54-54S9 348.177 9 378s24.177 54 54 54a53.74 53.74 0 0027.423-7.485l34.062 34.062A53.737 53.737 0 00117 486a53.768 53.768 0 005.566 23.883l-35.683 35.684A53.766 53.766 0 0063 540c-29.823 0-54 24.177-54 54s24.177 54 54 54 54-24.177 54-54a53.732 53.732 0 00-9.619-30.749l32.87-32.87A53.74 53.74 0 00171 540c25.162 0 46.304-17.21 52.299-40.5h48.402C277.696 522.79 298.838 540 324 540a53.743 53.743 0 0027.424-7.485l34.062 34.062A53.728 53.728 0 00378 594c0 29.823 24.177 54 54 54s54-24.177 54-54-24.177-54-54-54z"/><text transform="translate(72 369)" fill="#BF0000" font-family="Liberation Serif" font-size="36">B</text><text transform="translate(232 47)" fill="#BF0000" font-family="Liberation Serif" font-size="36">B</text><text transform="translate(27 367)" fill="#5110D2" font-family="Liberation Serif" font-size="36">A</text><text transform="translate(42 415)" fill="#476B00" font-family="Liberation Serif" font-size="36">C</text><text transform="translate(123 155)" fill="#476B00" font-family="Liberation Serif" font-size="36">C</text><text transform="translate(135 495)" fill="#476B00" font-family="Liberation Serif" font-size="36">C</text><text transform="translate(41 577)" fill="#476B00" font-family="Liberation Serif" font-size="36">C</text><text transform="translate(171 477)" fill="#BF0000" font-family="Liberation Serif" font-size="36">B</text><text transform="translate(297 477)" fill="#BF0000" font-family="Liberation Serif" font-size="36">B</text><text transform="translate(396 378)" fill="#BF0000" font-family="Liberation Serif" font-size="36">B</text><text transform="translate(36 621)" fill="#5A3000" font-family="Liberation Serif" font-size="36">D</text><text transform="translate(123 263)" fill="#5A3000" font-family="Liberation Serif" font-size="36">D</text><text transform="translate(80 612)" fill="#0092C8" font-family="Liberation Serif" font-size="36">E</text><text transform="translate(171 513)" fill="#0092C8" font-family="Liberation Serif" font-size="36">E</text><text transform="translate(232 263)" fill="#0092C8" font-family="Liberation Serif" font-size="36">E</text><text transform="translate(297 513)" fill="#0092C8" font-family="Liberation Serif" font-size="36">E</text><text transform="translate(396 603)" fill="#0092C8" font-family="Liberation Serif" font-size="36">E</text><text transform="translate(441 369)" fill="#007D7D" font-family="Liberation Serif" font-size="36">F</text><text transform="translate(340 47)" fill="#007D7D" font-family="Liberation Serif" font-size="36">F</text><text transform="translate(425 411)" fill="#A210D2" font-family="Liberation Serif" font-size="36">G</text><text transform="translate(340 155)" fill="#A210D2" font-family="Liberation Serif" font-size="36">G</text><text transform="translate(333 495)" fill="#A210D2" font-family="Liberation Serif" font-size="36">G</text><text transform="translate(423 576)" fill="#A210D2" font-family="Liberation Serif" font-size="36">G</text><text transform="translate(441 621)" fill="#CA5C00" font-family="Liberation Serif" font-size="36">H</text><text transform="translate(340 263)" fill="#CA5C00" font-family="Liberation Serif" font-size="36">H</text><path opacity=".4" fill="none" stroke="#476B00" stroke-width="4" d="M69.333 403.668S94 414.333 112 432.667s25.667 34.667 25.667 34.667M138.667 496.334s-8 19-26.333 37-42.667 25.334-42.667 25.334"/><path opacity=".4" fill="none" stroke="#BF0000" stroke-width="4" d="M88 373.001s5.333 30.334 30.333 54.667S165 457.334 165 457.334M197 471.334s21.667 10.668 50.333 10.334S295 472.001 295 472.001M321.334 460.334s32.333-8.334 53.333-31 29-46.333 29-46.333"/><path opacity=".4" fill="none" stroke="#0092C8" stroke-width="4" d="M97.667 583S92 563.667 118.334 539s51-35.667 51-35.667M194.667 495.666s26.333-7 52.667-6.333 47 7 47 7M322.334 506.333s29.667 12.667 51 36 25 32.333 25 32.333"/><path opacity=".4" fill="none" stroke="#A210D2" stroke-width="4" d="M423.333 407.667s-21.333 2.667-39.333 24-24.667 34.666-24.667 34.666M357.333 497.667s3.334 20 22.667 39.333 40 21.333 40 21.333"/><path fill="none" d="M0 0h495v657H0z"/><style xmlns="http://www.w3.org/1999/xhtml" id="lvdw870n.owp"></style></svg>