<svg xmlns="http://www.w3.org/2000/svg" width="240" height="1.9in" viewBox="2349 2160 3001 2292"><g stroke-width="8" stroke="#000" fill="none"><rect x="2362" y="2173" width="2976" height="2267" rx="0" stroke="#fff" fill="#fff"/><circle cx="2834" cy="3307" r="106"/><circle cx="3590" cy="2740" r="106"/><circle cx="4629" cy="2929" r="106"/><circle cx="4251" cy="3968" r="106"/><circle cx="3307" cy="3968" r="106"/><path d="M3424 3973h721M4313 3871l273-847M3697 2748l823 154M2917 3231l581-434M3239 3885l-325-497M4733 2965l501 193M4702 2839l147-350M3561 2629l-171-350M2728 3276l-280-42M3235 4053l-244 252M3355 4068l111 265M3204 3973l-350 42M4317 4060l178 214"/><path stroke="#0f0" d="M3568 2846l-234 1012M3662 2825l533 1046"/></g><style xmlns="http://www.w3.org/1999/xhtml" id="lvdrwle8.rw"></style></svg>