<svg width="37cm" height="16cm" viewBox="99 176 722 309" xmlns="http://www.w3.org/2000/svg"><circle cx="130" cy="330" fill="#fff" r="30"/><circle cx="130" cy="330" fill="none" stroke-width="2" stroke="#000" r="30"/><circle cx="350" cy="210" fill="#fff" r="30"/><circle cx="350" cy="210" fill="none" stroke-width="2" stroke="#000" r="30"/><circle cx="570" cy="210" fill="#fff" r="30"/><circle cx="570" cy="210" fill="none" stroke-width="2" stroke="#000" r="30"/><circle cx="350" cy="450" fill="#fff" r="30"/><circle cx="350" cy="450" fill="none" stroke-width="2" stroke="#000" r="30"/><circle cx="570" cy="450" fill="#fff" r="30"/><circle cx="570" cy="450" fill="none" stroke-width="2" stroke="#000" r="30"/><circle cx="790" cy="330" fill="#fff" r="30"/><circle cx="790" cy="330" fill="none" stroke-width="2" stroke="#000" r="30"/><path fill="none" stroke-width="2" stroke="#000" d="M157.205 315.161l165.59-90.322M157.205 344.839l165.59 90.322M381.005 450h157.99M350 241.003v177.994M597.205 224.839l165.59 90.322M381.005 210h157.99M370.954 232.859l178.092 194.282M570 418.997V241.003M597.205 435.161l165.59-90.322"/><text x="120" y="340" font-size="31.609" font-family="sanserif" font-weight="400"><tspan x="120" y="340">0</tspan></text><text x="780" y="340" font-size="31.609" font-family="sanserif" font-weight="400"><tspan x="780" y="340">5</tspan></text><text x="200" y="260" font-size="23.707" font-family="sanserif" font-weight="400"><tspan x="200" y="260">1</tspan></text><text x="207" y="420" font-size="23.707" font-family="sanserif" font-weight="400"><tspan x="207" y="420">7</tspan></text><text x="330" y="319" font-size="23.707" font-family="sanserif" font-weight="400"><tspan x="330" y="319">1</tspan></text><text x="460" y="320" font-size="23.707" font-family="sanserif" font-weight="400"><tspan x="460" y="320">2</tspan></text><text x="440" y="200" font-size="23.707" font-family="sanserif" font-weight="400"><tspan x="440" y="200">3</tspan></text><text x="680" y="260" font-size="23.707" font-family="sanserif" font-weight="400"><tspan x="680" y="260">6</tspan></text><text x="680" y="420" font-size="23.707" font-family="sanserif" font-weight="400"><tspan x="680" y="420">2</tspan></text><text x="580" y="320" font-size="23.707" font-family="sanserif" font-weight="400"><tspan x="580" y="320">1</tspan></text><text x="440" y="480" font-size="23.707" font-family="sanserif" font-weight="400"><tspan x="440" y="480">4</tspan></text><text x="340" y="220" font-size="31.609" font-family="sanserif" font-weight="400"><tspan x="340" y="220">1</tspan></text><text x="560" y="220" font-size="31.609" font-family="sanserif" font-weight="400"><tspan x="560" y="220">3</tspan></text><text x="340" y="460" font-size="31.609" font-family="sanserif" font-weight="400"><tspan x="340" y="460">2</tspan></text><text x="560" y="460" font-size="31.609" font-family="sanserif" font-weight="400"><tspan x="560" y="460">4</tspan></text><style xmlns="http://www.w3.org/1999/xhtml" id="luskra7r.l08"></style></svg>