<svg width="31cm" height="12cm" viewBox="137 242 615 226" xmlns="http://www.w3.org/2000/svg"><path fill="none" stroke-width="2" stroke="#000" d="M531.628 410.847l69.744-109.694"/><text x="331.408" y="350.3" font-size="23.707" font-family="sanserif" font-weight="400"><tspan x="331.408" y="350.3">6</tspan></text><path fill="none" stroke-width="2" stroke="#000" d="M634.562 301.21l69.876 110.58"/><text x="683.408" y="370.3" font-size="23.707" font-family="sanserif" font-weight="400"><tspan x="683.408" y="370.3">8</tspan></text><path fill="none" stroke-width="2" stroke="#000" d="M306.725 411.589l77.55-111.178"/><text x="551.408" y="351.3" font-size="23.707" font-family="sanserif" font-weight="400"><tspan x="551.408" y="351.3">6</tspan></text><path fill="none" stroke-width="2" stroke="#000" d="M497.275 411.589l-77.55-111.178"/><text x="437.408" y="371.3" font-size="23.707" font-family="sanserif" font-weight="400"><tspan x="437.408" y="371.3">7</tspan></text><path fill="none" stroke-width="2" stroke="#000" d="M186.471 298.882l84.058 113.236"/><text x="212.408" y="370.3" font-size="23.707" font-family="sanserif" font-weight="400"><tspan x="212.408" y="370.3">8</tspan></text><circle cx="721" cy="438" fill="#fff" r="30"/><circle cx="721" cy="438" fill="none" stroke-width="2" stroke="#009a00" r="30"/><text x="711" y="448" font-size="31.609" font-family="sanserif" font-weight="400"><tspan x="711" y="448">5</tspan></text><circle cx="618" cy="275" fill="#fff" r="30"/><circle cx="618" cy="275" fill="none" stroke-width="2" stroke="#009a00" r="30"/><text x="608" y="285" font-size="31.609" font-family="sanserif" font-weight="400"><tspan x="608" y="285">3</tspan></text><circle cx="168" cy="274" fill="#fff" r="30"/><circle cx="168" cy="274" fill="none" stroke-width="2" stroke="#009a00" r="30"/><text x="158" y="284" font-size="31.609" font-family="sanserif" font-weight="400"><tspan x="158" y="284">0</tspan></text><g><circle cx="289" cy="437" fill="#fff" r="30"/><circle cx="289" cy="437" fill="none" stroke-width="2" stroke="#009a00" r="30"/><text x="279" y="447" font-size="31.609" font-family="sanserif" font-weight="400"><tspan x="279" y="447">2</tspan></text></g><g><circle cx="402" cy="275" fill="#fff" r="30"/><circle cx="402" cy="275" fill="none" stroke-width="2" stroke="#009a00" r="30"/><text x="392" y="285" font-size="31.609" font-family="sanserif" font-weight="400"><tspan x="392" y="285">4</tspan></text></g><g><circle cx="515" cy="437" fill="#fff" r="30"/><circle cx="515" cy="437" fill="none" stroke-width="2" stroke="#009a00" r="30"/><text x="505" y="447" font-size="31.609" font-family="sanserif" font-weight="400"><tspan x="505" y="447">1</tspan></text></g><style xmlns="http://www.w3.org/1999/xhtml" id="lusqzzjw.bmm"></style></svg>